<svg xmlns="http://www.w3.org/2000/svg" viewBox="0 0 1725.55 215.46"><defs><style>.cls-1{fill:#fc3100;}.cls-2{fill:#d82e07;}.cls-3{fill:#d72e07;}</style></defs><g id="Слой_2" data-name="Слой 2"><g id="Слой_1-2" data-name="Слой 1"><path class="cls-1" d="M115.2,90.83c-.55,0-1.09,0-1.64,0H34.39c-1.19,0-1.83.27-1.82,1.75.06,18.09,0,36.19,0,54.29,0,1.73,0,1.73-1.78,1.73-9.76,0-19.51,0-29.27,0C.28,148.6,0,148.21,0,147Q.06,74.51,0,2C0,.68.4.42,1.68.42q72.41.06,144.81,0c1.39,0,1.73.36,1.73,1.74q-.06,72.35,0,144.67c0,1.35-.29,1.78-1.72,1.77q-14.7-.1-29.4,0c-1.29,0-1.56-.4-1.56-1.62q0-26.66,0-53.33c0-.86-.09-1.72-.13-2.59C115.45,90.88,115.38,90.8,115.2,90.83ZM32.65,33.34q0,11.55,0,23.1c0,1.78,0,1.78,1.8,1.78h79c.6,0,1.19,0,1.78,0,.18,0,.25,0,.23-.22,0-.82.12-1.63.13-2.45q0-10.32,0-20.63c0-2.11.17-1.83-1.81-1.84H34.5c-.54,0-1.09.05-1.63.07C32.69,33.09,32.62,33.16,32.65,33.34Z"/><path class="cls-1" d="M948.17,117.64l1.93,0h112.57c2.19,0,1.94.28,1.95-2,0-7,0-14.07,0-21.11a6.94,6.94,0,0,0-.26-2c0-.18,0-.26-.23-.22-.6,0-1.2,0-1.79,0h-53.43a3.82,3.82,0,0,1-.83,0c-.59-.15-1.29.52-1.67.09s-.16-1.33-.16-2c0-9.89,0-19.78,0-29.68,0-1.28.37-1.59,1.62-1.59,18.36,0,36.72,0,55.08.06,1.29,0,1.74-.31,1.73-1.67q-.09-11.11,0-22.23c0-1.32-.42-1.57-1.63-1.57q-56.61,0-113.21,0c-1.89,0-1.89,0-1.89-1.9,0-9.85,0-19.7,0-29.55,0-1.11.25-1.49,1.43-1.49q73.38,0,146.76,0c1.14,0,1.47.32,1.47,1.47q0,73.52,0,147c0,1.14-.13,1.83-1.51,1.37a4,4,0,0,0-1.24,0H949.69c-1.81,0-1.81,0-1.8-1.73l.06-30.92Z"/><path class="cls-1" d="M254,.87q0,8.19,0,16.39c0,13.16,0,26.32,0,39.48,0,1.25.34,1.58,1.69,1.58,19.69,0,39.37,0,59.06-.06,1.44,0,1.81.37,1.8,1.64,0,8.52,0,17,0,25.55v60.66c0,2.52,0,2.52-2.74,2.52H158.73c-2.19,0-2,.3-2-1.91V2.44c0-2.2-.13-1.84,1.94-1.84h93.52c.54,0,1.07,0,1.61.05Zm-62.09,32.3c-.19,0-.27,0-.25.21.05.72.15,1.43.15,2.14,0,7.15,0,14.29,0,21.44,0,.66-.18,1.35,1,1.35q12.51-.06,25,0c.85,0,1.08-.3,1.08-1q0-11.48,0-22.95c0-.88-.32-1.19-1.29-1.19C209.09,33.16,200.5,33.16,191.91,33.17Zm44.75,57.69q-21.65,0-43.28,0c-1.2,0-1.59.27-1.59,1.43.06,7.47.05,14.93,0,22.4,0,1.07.32,1.39,1.48,1.39q43.36,0,86.71,0c1.14,0,1.5-.28,1.49-1.37-.05-7.37-.06-14.75,0-22.12,0-1.36-.32-1.75-1.84-1.74C265.32,90.89,251,90.86,236.66,90.86Z"/><path class="cls-1" d="M320.39,32.87q0-16,0-32.07l.22-.23c.68,0,1.37-.09,2.05-.09q71.83,0,143.67,0c.77,0,1.55.06,2.32.09l.21.23c0,10.37,0,20.74.06,31.11,0,1.27-.69,1.23-1.58,1.23H414.18a15.37,15.37,0,0,1-1.92,0c-1.09-.13-1.62.14-1.29,1.35a4,4,0,0,1,0,1.1V145.89c0,2.75,0,2.75-2.69,2.75H380.07c-1.78,0-1.78,0-1.78-1.76q0-55.84,0-111.69c0-2.33.29-2-2-2H322.39c-.59,0-1.19,0-1.78,0Z"/><path class="cls-2" d="M412.67,214.75l-.65.7C411.9,214.9,412.15,214.7,412.67,214.75Z"/><path class="cls-3" d="M862.82,215.46l-.65-.71C862.7,214.7,862.93,214.92,862.82,215.46Z"/><path class="cls-1" d="M550.27,148.61H478.16c-1,0-1.52.09-1.52-1.41q.12-72,.06-144.07c0-.14,0-.28,0-.41-.07-2-.07-2,2-2q72.1,0,144.21,0c1.24,0,1.49.38,1.49,1.54q0,72.45,0,144.89c0,1.28-.37,1.57-1.59,1.57Q586.53,148.58,550.27,148.61ZM509.2,74.79c0,13.27,0,26.54,0,39.81,0,1.28.37,1.55,1.59,1.55q39.66,0,79.34,0c1.17,0,1.51-.26,1.51-1.48q-.06-39.89,0-79.75c0-1.23-.34-1.49-1.51-1.49q-39.68.06-79.34,0c-1.22,0-1.6.28-1.59,1.56C509.22,48.26,509.2,61.52,509.2,74.79Z"/><path class="cls-1" d="M665.07,91.14c0,.59,0,1.18,0,1.77q0,27.06,0,54.11c0,1.2-.24,1.62-1.54,1.62-9.93-.06-19.86,0-29.79,0-.93,0-1.79.09-1.27-1.3a3.3,3.3,0,0,0,0-1.09V3a3.54,3.54,0,0,0,0-1.22c-.67-1.67.42-1.5,1.46-1.5H778.76c1.76,0,1.76,0,1.76,1.8q0,43.59,0,87.18c0,1.18-.09,1.66-1.56,1.65q-56.64-.09-113.28,0a2.85,2.85,0,0,0-.41,0C665.11,90.88,665,91,665.07,91.14Zm82.72-33.35c.05-.82.12-1.64.12-2.45q0-10.32,0-20.63c0-1.84,0-1.84-1.82-1.84H667.16c-.37,0-.73,0-1.1,0-.83-.06-1.06.3-1,1.12q0,11.48,0,22.95c0,.89.24,1.12,1.15,1.12q40.08,0,80.17,0l1.23,0C747.74,58,747.81,58,747.79,57.79Z"/><path class="cls-1" d="M788.65,151.64V2c0-1.82,0-1.82,1.78-1.82q14.67,0,29.35,0c2,0,1.89-.31,1.89,1.84V87.12L939.88.36a3.11,3.11,0,0,1,.2,1.65q0,73.44,0,146.88c0,2,.28,1.79-1.78,1.79-9.88,0-19.75,0-29.63,0-1.28,0-1.61-.34-1.61-1.62q.06-40.6,0-81.2a3.56,3.56,0,0,0-.21-1.82Z"/><path class="cls-1" d="M1221.43,92c-.55,0-1.1,0-1.65,0H1140c-1.2,0-1.84.27-1.84,1.76.06,18.23,0,36.47,0,54.7,0,1.75,0,1.75-1.79,1.75-9.83,0-19.66,0-29.49,0-1.29,0-1.57-.38-1.57-1.61q0-73,0-146.06c0-1.38.41-1.63,1.69-1.63q73,0,145.93,0c1.4,0,1.74.37,1.74,1.76q-.06,72.89,0,145.78c0,1.36-.29,1.79-1.73,1.78q-14.81-.11-29.62,0c-1.31,0-1.58-.41-1.58-1.63q0-26.86,0-53.74c0-.87-.09-1.74-.13-2.61C1221.68,92,1221.61,92,1221.43,92Zm-83.19-57.94q0,11.64,0,23.28c0,1.8,0,1.8,1.81,1.8h79.63c.6,0,1.19,0,1.79,0,.18,0,.25,0,.23-.21,0-.83.13-1.65.13-2.47q0-10.39,0-20.79c0-2.13.17-1.85-1.83-1.85q-39.92,0-79.85,0c-.55,0-1.09,0-1.64.07C1138.29,33.81,1138.21,33.88,1138.24,34.06Z"/><path class="cls-1" d="M1337,149.87h-72.62c-1.83,0-1.83,0-1.83-1.85V2.92c0-1.8,0-1.8,1.73-1.8,9.81,0,19.62,0,29.43,0,1.36,0,1.64.38,1.64,1.68q-.06,56.19,0,112.37c0,2.06-.34,1.93,1.89,1.93h79.9c1.91,0,1.92,0,1.92-1.93q0-56.06,0-112.1c0-2.21-.21-1.91,1.89-1.92,9.67,0,19.35,0,29,0,1.25,0,1.6.32,1.6,1.58q0,72.82,0,145.66c0,1.32-.45,1.57-1.66,1.57Q1373.46,149.86,1337,149.87Z"/><path class="cls-1" d="M1366.18,206.79c-14.62,0-29.24,0-43.86,0-1.42,0-1.72-.39-1.71-1.75q.09-14.79,0-29.56c0-1.13.17-1.58,1.46-1.58q44,.08,88,0c1.13,0,1.48.32,1.47,1.47q-.06,15,0,30c0,1.2-.42,1.43-1.51,1.42Q1388.1,206.77,1366.18,206.79Z"/><path class="cls-1" d="M1419.31,150.21V2.6c0-1.8,0-1.8,1.75-1.8h29c2,0,1.86-.32,1.86,1.82q0,40.88,0,81.77v2.15L1568.52.94a3,3,0,0,1,.2,1.63q0,72.47,0,144.93c0,1.93.28,1.77-1.76,1.77-9.74,0-19.49,0-29.23,0-1.26,0-1.59-.33-1.59-1.59q.06-40.07,0-80.12a3.49,3.49,0,0,0-.21-1.8Z"/><path class="cls-1" d="M1641.73,87.62h-63.37c-1.91,0-1.91,0-1.91-2q0-41.88,0-83.78c0-2.17-.21-1.88,1.93-1.88h145.28c2.13,0,1.84-.26,1.84,1.79q0,72.91,0,145.83c0,1.32-.23,1.79-1.7,1.77-9.4-.07-18.8,0-28.2,0-1.74,0-1.74,0-1.74-1.81q0-24.21,0-48.42c0-1.64,0-1.64-1.52-1L1578,148.66c-1.54.68-1.55.68-1.55-.94,0-10.83,0-21.65,0-32.47a1.72,1.72,0,0,1,1.28-1.9Q1609,101,1640.17,88.62l1.63-.66Zm9.35-56q-20.76,0-41.52,0c-1.2,0-1.55.29-1.54,1.52q.09,10.72,0,21.45c0,1.23.35,1.52,1.54,1.52q41.46,0,82.92,0c1.16,0,1.46-.33,1.45-1.46,0-7.15-.06-14.3,0-21.45,0-1.29-.37-1.58-1.6-1.58Q1671.7,31.65,1651.08,31.62Z"/></g></g></svg>