<svg xmlns="http://www.w3.org/2000/svg" viewBox="0 0 1715.52 240.5"><defs><style>.cls-1{fill:#2e232c;}.cls-2{fill:#33242a;}.cls-3{fill:#e32f05;}.cls-4{fill:#452527;}.cls-5{fill:#e92f03;}.cls-6{fill:#462527;}.cls-7{fill:#fc3100;}</style></defs><g id="Слой_2" data-name="Слой 2"><g id="Слой_1-2" data-name="Слой 1"><path class="cls-1" d="M794.15,168.41l-.64.64C793.42,168.53,793.64,168.33,794.15,168.41Z"/><path class="cls-2" d="M1030.86,240.47l.65-.62C1031.58,240.36,1031.37,240.57,1030.86,240.47Z"/><path class="cls-3" d="M968.72,85.78l-.78-.84C968.58,84.87,968.86,85.13,968.72,85.78Z"/><path class="cls-4" d="M758,204l-.85.77C757.11,204.11,757.38,203.83,758,204Z"/><path class="cls-5" d="M494.69,175.73l.82.8C494.85,176.66,494.61,176.37,494.69,175.73Z"/><path class="cls-6" d="M912.88,165.47l.86-.78C913.8,165.33,913.53,165.61,912.88,165.47Z"/><path class="cls-7" d="M32.82,94.41c0,.59,0,1.18,0,1.77q0,27.06,0,54.12c0,1.2-.24,1.62-1.55,1.61-9.93-.06-19.86,0-29.79,0-.92,0-1.78.08-1.26-1.31a3.24,3.24,0,0,0,0-1.08V6.29a3.61,3.61,0,0,0,0-1.23c-.68-1.67.42-1.5,1.46-1.5H146.52c1.76,0,1.76,0,1.76,1.79q0,43.61,0,87.19c0,1.18-.09,1.65-1.56,1.65q-56.64-.09-113.28,0c-.14,0-.28,0-.41,0S32.8,94.23,32.82,94.41Zm82.73-33.35c0-.82.12-1.63.12-2.45q0-10.3,0-20.62c0-1.84,0-1.84-1.82-1.84H34.91c-.36,0-.73,0-1.09,0-.83-.07-1.06.29-1.06,1.12q0,11.48,0,22.94c0,.9.25,1.13,1.15,1.12q40.1,0,80.18,0c.41,0,.82,0,1.23,0C115.49,61.31,115.57,61.23,115.55,61.06Z"/><path class="cls-7" d="M230.19,151.53H158.56c-2.5,0-2.5,0-2.5-2.47V5.26c0-2.3-.25-2,1.94-2H300c1.94,0,1.74-.27,1.74,1.75,0,9.76,0,19.52,0,29.28,0,1.25-.31,1.59-1.58,1.59q-53.21-.06-106.41,0c-2,0-1.83-.28-1.84,1.82,0,7.3,0,14.6,0,21.9,0,1.23.36,1.5,1.54,1.5q21.72-.06,43.42,0c2.53,0,2.6.07,2.6,2.6,0,9.49,0,19,0,28.46,0,1.31-.41,1.59-1.63,1.58q-21.71,0-43.41,0c-2.52,0-2.52,0-2.52,2.53,0,7,0,14,0,21.07,0,1.35.4,1.65,1.69,1.64q53.9,0,107.79,0c3.05,0,3.05,0,3.05,3q0,13.89,0,27.78c0,1.7.45,1.86-2,1.86Q266.35,151.51,230.19,151.53Z"/><path class="cls-7" d="M385.58,2.53q36.07,0,72.17,0c2.05,0,2.77.45,2.74,2.64q-.18,13.76,0,27.52c0,2.3-.72,2.79-2.89,2.79q-55.64-.11-111.27-.07c-1.78,0-3.31-.13-2.39,2.45a6.5,6.5,0,0,1,0,2.07q0,52.15,0,104.32c0,2.14-.28,4.29-.31,6.43,0,1.13-.66,1.22-1.5,1.22q-14.91,0-29.84,0c-1.21,0-1.62-.44-1.55-1.63.16-2.84.33-5.68.33-8.52q0-67.87,0-135.77c0-3.42,0-3.42,3.46-3.42Z"/><path class="cls-7" d="M468.36,152.23V3.93c0-1.8,0-1.8,1.76-1.8h29.1c2,0,1.87-.31,1.87,1.83V88.28l117.18-86a3.07,3.07,0,0,1,.2,1.64q0,72.8,0,145.6c0,1.94.28,1.78-1.77,1.78-9.79,0-19.58,0-29.37,0-1.26,0-1.59-.34-1.59-1.6q.06-40.25,0-80.49a3.57,3.57,0,0,0-.21-1.82Z"/><path class="cls-7" d="M776.94,150.42c-.7,0-1.39.11-2.08.11H628.76c-1.89,0-1.89,0-1.89-1.84q0-73.38,0-146.77c0-2.12-.23-1.91,2-1.91h146c2.7,0,2.7,0,2.7,2.72V31.21c0,1.92,0,1.92-1.86,1.92H661.79c-1.76,0-1.77,0-1.77,1.82v80.62c0,1.84,0,1.84,1.89,1.84H774.65a3,3,0,0,1,2,.29v25.57a4.51,4.51,0,0,0,.28,2.18V146a4,4,0,0,0,0,3Z"/><path class="cls-7" d="M785.89,33q0-16.15,0-32.3l.21-.24c.69,0,1.38-.08,2.07-.08q72.34,0,144.69,0c.78,0,1.56,0,2.34.08l.22.24c0,10.44,0,20.89,0,31.33,0,1.28-.7,1.24-1.59,1.24H880.35a15.52,15.52,0,0,1-1.93,0c-1.1-.13-1.64.14-1.3,1.37a4,4,0,0,1,0,1.1v111.1c0,2.77,0,2.77-2.71,2.77H846c-1.8,0-1.8,0-1.8-1.77V35.33c0-2.35.28-2.06-2.05-2.06H787.91c-.6,0-1.2,0-1.8,0Z"/><path class="cls-7" d="M976.26,91.79c0,.6,0,1.19,0,1.78q0,27.18,0,54.35c0,1.2-.24,1.62-1.55,1.61-10-.06-19.94,0-29.91,0-.93,0-1.79.09-1.27-1.31a3.3,3.3,0,0,0,0-1.09V3.3a3.61,3.61,0,0,0,0-1.23C942.83.39,943.93.56,945,.56h145.46c1.77,0,1.77,0,1.77,1.8q0,43.79,0,87.55c0,1.19-.09,1.66-1.56,1.66q-56.88-.09-113.76,0c-.14,0-.28,0-.41,0S976.23,91.61,976.26,91.79Zm83.07-33.49c.05-.82.12-1.64.13-2.46q0-10.35,0-20.71c0-1.85,0-1.85-1.82-1.85H978.36c-.37,0-.73,0-1.1,0-.84-.06-1.06.3-1.06,1.13q0,11.52,0,23c0,.9.25,1.13,1.15,1.13q40.26,0,80.52,0l1.23,0C1059.28,58.55,1059.35,58.48,1059.33,58.3Z"/><path class="cls-7" d="M1215.71,91c-.55,0-1.09,0-1.64,0H1134.9c-1.19,0-1.83.26-1.82,1.74q.09,27.15,0,54.29c0,1.73,0,1.73-1.77,1.73-9.76,0-19.51,0-29.27,0-1.28,0-1.55-.38-1.55-1.6q0-72.46,0-144.94c0-1.37.4-1.62,1.68-1.62q72.4,0,144.81,0c1.39,0,1.73.37,1.73,1.74q-.06,72.35,0,144.68c0,1.34-.29,1.77-1.72,1.76q-14.7-.1-29.4,0c-1.29,0-1.57-.4-1.56-1.61q0-26.67,0-53.33c0-.87-.09-1.73-.13-2.59C1216,91.07,1215.89,91,1215.71,91Zm-82.55-57.5q0,11.55,0,23.1c0,1.78,0,1.78,1.79,1.78h79c.6,0,1.19,0,1.78,0,.18,0,.25,0,.23-.22,0-.81.12-1.63.13-2.45q0-10.31,0-20.63c0-2.11.17-1.83-1.81-1.83q-39.63,0-79.25,0c-.54,0-1.09,0-1.63.07C1133.2,33.28,1133.13,33.35,1133.16,33.53Z"/><path class="cls-7" d="M1330.36,149h-72c-1.83,0-1.83,0-1.83-1.84V3.23c0-1.78,0-1.79,1.72-1.79,9.73,0,19.47,0,29.2,0,1.35,0,1.63.38,1.62,1.66q0,55.76,0,111.49c0,2-.34,1.92,1.87,1.92h79.28c1.89,0,1.89,0,1.89-1.92q0-55.61,0-111.21c0-2.19-.21-1.9,1.87-1.9,9.6,0,19.2,0,28.79,0,1.25,0,1.6.31,1.6,1.57q-.06,72.26,0,144.5c0,1.32-.44,1.56-1.64,1.56Q1366.52,149,1330.36,149Z"/><path class="cls-7" d="M1359.3,205.5c-14.5,0-29,0-43.5,0-1.41,0-1.71-.38-1.71-1.73.07-9.78.05-19.56,0-29.33,0-1.12.18-1.56,1.46-1.56q43.65.06,87.29,0c1.13,0,1.47.31,1.46,1.45q-.06,14.87,0,29.73c0,1.19-.42,1.42-1.5,1.42Q1381.06,205.48,1359.3,205.5Z"/><path class="cls-7" d="M1412.47,149.53V3.3c0-1.78,0-1.78,1.74-1.78h28.69c2,0,1.84-.31,1.84,1.8q0,40.5,0,81v2.13L1560.3,1.66a3.08,3.08,0,0,1,.19,1.62q0,71.78,0,143.57c0,1.92.28,1.75-1.74,1.75-9.65,0-19.31,0-29,0-1.25,0-1.57-.34-1.57-1.58q0-39.69,0-79.37a3.56,3.56,0,0,0-.21-1.79Z"/><path class="cls-7" d="M1632.94,86.66h-62.45c-1.87,0-1.87,0-1.87-1.92V2.19c0-2.13-.2-1.85,1.9-1.85q71.58,0,143.15,0c2.1,0,1.82-.26,1.82,1.76q0,71.85,0,143.69c0,1.3-.23,1.75-1.67,1.74-9.26-.07-18.52,0-27.79,0-1.72,0-1.72,0-1.72-1.78V98c0-1.61,0-1.62-1.5-1l-112.7,49.76c-1.51.67-1.52.67-1.52-.93,0-10.66,0-21.33,0-32a1.69,1.69,0,0,1,1.27-1.87q30.78-12.15,61.54-24.37L1633,87Zm9.21-55.18q-20.46,0-40.92,0c-1.18,0-1.52.29-1.51,1.5q.09,10.56,0,21.13c0,1.22.35,1.5,1.52,1.5q40.86,0,81.7,0c1.14,0,1.44-.32,1.43-1.44q-.07-10.57,0-21.14c0-1.26-.36-1.55-1.57-1.55C1669.25,31.5,1655.7,31.48,1642.15,31.48Z"/></g></g></svg>